<svg width="24" height="24" viewBox="0 0 24 24" fill="none" xmlns="http://www.w3.org/2000/svg">
<path d="M9.9 0.87323C9.56719 1.03729 9.225 1.46503 9.09844 1.89276C9 2.22089 9 2.22675 9 12.0002C9 21.7326 9 21.7853 9.09844 22.1017C9.21563 22.4943 9.50156 22.881 9.82031 23.0744L10.0547 23.2209L11.9344 23.2385C13.7531 23.256 13.8234 23.2502 14.0813 23.1271C14.4328 22.9631 14.7703 22.5471 14.9016 22.1076C15 21.7795 15 21.7736 15 12.0002C15 2.22675 15 2.22089 14.9016 1.89276C14.7703 1.45917 14.4328 1.03729 14.0859 0.87323C13.8375 0.756042 13.7391 0.750183 11.9859 0.756042C10.2563 0.756042 10.1344 0.761902 9.9 0.87323Z" fill="#565655"/>
<path d="M0.9 6.49823C0.567188 6.66229 0.225 7.09002 0.0984375 7.51776C0 7.84003 0 7.89276 0 14.8127C0 21.7033 0 21.7853 0.0984375 22.1017C0.215625 22.4943 0.501563 22.881 0.820313 23.0744L1.05469 23.2209L2.93438 23.2385C4.75313 23.256 4.82344 23.2502 5.08125 23.1271C5.43281 22.9631 5.77031 22.5471 5.90156 22.1076C6 21.7853 6 21.7326 6 14.8127C6 7.89276 6 7.84003 5.90156 7.51776C5.77031 7.08417 5.43281 6.66229 5.08594 6.49823C4.8375 6.38104 4.73906 6.37518 2.98594 6.38104C1.25625 6.38104 1.13438 6.3869 0.9 6.49823Z" fill="#565655"/>
<path d="M18.9 10.2482C18.5672 10.4123 18.225 10.84 18.0984 11.2678C18 11.59 18 11.6662 18 16.6877C18 21.6857 18 21.7853 18.0984 22.1017C18.2156 22.4943 18.5016 22.881 18.8203 23.0744L19.0547 23.2209L20.9344 23.2385C22.7531 23.256 22.8234 23.2502 23.0813 23.1271C23.4328 22.9631 23.7703 22.5471 23.9016 22.1076C24 21.7853 24 21.7092 24 16.6877C24 11.6662 24 11.59 23.9016 11.2678C23.7703 10.8342 23.4328 10.4123 23.0859 10.2482C22.8375 10.131 22.7391 10.1252 20.9859 10.131C19.2563 10.131 19.1344 10.1369 18.9 10.2482Z" fill="#565655"/>
</svg>
