<svg width="24" height="24" viewBox="0 0 24 24" fill="none" xmlns="http://www.w3.org/2000/svg">
<path d="M11.2129 0.406639C9.32379 0.569138 7.32809 1.275 5.73864 2.33633C3.02184 4.14922 1.22927 6.93711 0.665596 10.2227C0.508174 11.1418 0.508174 12.5789 0.670674 13.4879C1.12263 16.0473 2.23474 18.2004 4.02731 19.9625C5.40348 21.3234 7.27731 22.4152 9.05465 22.8875L9.51676 23.0145L9.50153 22.598L9.48629 22.1816L8.59762 22.1766C7.88161 22.1715 7.63278 22.1461 7.31793 22.0648C6.4902 21.8414 6.19059 21.6078 5.84528 20.9172C5.3527 19.932 5.20544 19.7187 4.62653 19.1602L4.07809 18.627V18.307C4.07809 17.9922 4.07809 17.9871 4.25583 17.9109C4.67731 17.7383 5.45426 17.8855 5.99762 18.2461C6.23122 18.4035 6.36325 18.5457 6.57145 18.8656C6.90153 19.3684 7.40934 19.9016 7.75973 20.1047C7.98825 20.2367 8.05934 20.252 8.44528 20.252C8.70934 20.252 8.98864 20.2164 9.16637 20.1605L9.45075 20.0742L9.56754 19.7289C9.62848 19.541 9.73004 19.282 9.79606 19.1551C9.92301 18.9012 9.91286 18.8555 9.73512 18.8555C9.46598 18.8555 8.38434 18.5355 7.9527 18.3273C6.33278 17.5453 5.52536 16.4484 5.1902 14.5898C5.14958 14.3512 5.12419 13.823 5.12419 13.1934C5.12419 12.325 5.13942 12.1168 5.23083 11.7461C5.36794 11.1926 5.632 10.573 5.92653 10.1008L6.15505 9.73008L6.07887 9.30351C5.94684 8.62304 6.06872 7.39922 6.32262 6.80508L6.42419 6.5664H6.73903C7.59723 6.5664 8.60778 6.91679 9.50153 7.52617L9.79098 7.72422L10.4257 7.59219C11.03 7.46523 11.1367 7.46015 12.5839 7.46015C14.0211 7.46523 14.1429 7.47031 14.6914 7.59219L15.2754 7.71914L15.4785 7.58203C16.3976 6.9625 17.4742 6.5664 18.2664 6.5664C18.5558 6.5664 18.6066 6.58164 18.698 6.69336C18.9824 7.06406 19.1449 8.83125 18.9621 9.61836C18.9265 9.7707 18.9367 9.8164 19.0332 9.90781C19.2007 10.0703 19.6984 11.1012 19.8304 11.5684C19.9371 11.9391 19.9472 12.0711 19.9421 13.1172C19.9421 13.9398 19.9168 14.3867 19.8558 14.7168C19.6832 15.6664 19.3328 16.4687 18.7742 17.1746C18.2156 17.8805 17.3066 18.3781 15.9254 18.7336C15.5445 18.8301 15.2195 18.9164 15.2144 18.9266C15.2043 18.9367 15.2703 19.0992 15.3617 19.2922L15.5293 19.6426L15.5546 21.1762L15.58 22.7098L16.1132 22.4914C19.9878 20.9273 22.6793 17.5301 23.3597 13.3457C23.4918 12.5281 23.4816 11.0656 23.3343 10.2227C22.7707 6.93711 20.9781 4.14922 18.2562 2.33125C16.1691 0.939842 13.498 0.208591 11.2129 0.406639Z" fill="#565655"/>
</svg>
