<svg width="22" height="24" viewBox="0 0 22 24" fill="none" xmlns="http://www.w3.org/2000/svg">
<path d="M12.8145 0.202436C12.6438 0.309105 10.0838 2.81577 7.15048 5.77044C1.33715 11.6158 1.41181 11.5304 1.08115 13.0664C0.889146 14.0051 0.878479 14.6878 1.07048 15.5838C1.37981 17.0131 1.66781 17.4184 4.48381 20.2451C5.89181 21.6744 7.27848 22.9864 7.56648 23.1678C8.66515 23.8718 10.3825 24.1491 11.8011 23.8504C13.1558 23.5624 13.6145 23.2638 15.3531 21.5571C17.2091 19.7331 17.3798 19.5304 17.3798 18.9971C17.3798 18.1544 16.8145 17.5998 15.9718 17.5998C15.4705 17.5998 15.3318 17.7064 13.4011 19.5838C12.7291 20.2344 12.0251 20.8531 11.8331 20.9491C11.2891 21.2264 10.4251 21.2798 9.71048 21.0771C9.10248 20.8958 9.01715 20.8211 6.64915 18.4211C5.31581 17.0558 4.13181 15.7758 4.01448 15.5624C3.70515 14.9651 3.64115 14.2078 3.85448 13.4824C4.02515 12.8744 4.13181 12.7571 6.49981 10.3678C7.86515 8.99177 9.11315 7.7971 9.29448 7.71177C9.73181 7.4771 10.8411 7.41311 11.4491 7.5731C11.8651 7.69044 12.2278 7.9891 13.6785 9.35444C14.6385 10.2504 15.5451 11.0078 15.6945 11.0504C16.6651 11.2958 17.6038 10.3251 17.3371 9.35444C17.2731 9.10911 16.7291 8.5011 15.5131 7.2851C13.7851 5.57844 13.3585 5.25844 12.1851 4.86377C12.0145 4.79977 12.2065 4.5651 13.3798 3.37044C14.7558 1.98377 14.7878 1.9411 14.7878 1.48244C14.7878 0.885103 14.4678 0.35177 13.9878 0.149103C13.4971 -0.0535622 13.1985 -0.0428963 12.8145 0.202436Z" fill="#565655"/>
<path d="M9.17798 13.12C8.85798 13.248 8.51664 13.7173 8.43131 14.144C8.34598 14.6027 8.53798 15.072 8.94331 15.4133L9.26331 15.68H14.746H20.2286L20.6126 15.328C21.1246 14.8587 21.2206 14.208 20.8473 13.6533C20.7086 13.4507 20.474 13.2267 20.3353 13.152C20.1326 13.0453 18.7993 13.0133 14.7353 13.024C11.802 13.024 9.29531 13.0667 9.17798 13.12Z" fill="#565655"/>
</svg>
