<svg width="22" height="22" viewBox="0 0 22 22" fill="none" xmlns="http://www.w3.org/2000/svg">
<path d="M0.992789 0.691839C0.296789 1.24384 0.320789 0.799839 0.320789 10.9998C0.320789 21.5838 0.272789 21.0318 1.20879 21.4518C1.67679 21.6678 2.20479 21.6798 10.9408 21.6798C19.6768 21.6798 20.2048 21.6678 20.6728 21.4518C21.6088 21.0318 21.5608 21.5838 21.5608 10.9998C21.5608 0.799839 21.5848 1.24384 20.8888 0.691839C20.5648 0.43984 20.5168 0.43984 10.9408 0.43984C1.36479 0.43984 1.31679 0.43984 0.992789 0.691839ZM6.18879 3.76384C6.92079 4.32784 7.18479 5.53984 6.70479 6.18784C5.78079 7.44784 4.02879 7.29184 3.50079 5.91184C3.14079 4.98784 3.54879 4.01584 4.46079 3.60784C4.92879 3.39184 5.78079 3.46384 6.18879 3.76384ZM16.5568 8.52784C17.2768 8.83984 17.8888 9.55984 18.2008 10.4838C18.4768 11.2518 18.4888 11.4918 18.5368 14.9238L18.5848 18.5598H17.0248H15.4768L15.4168 15.4638C15.3568 12.1038 15.2848 11.7558 14.6608 11.2638C13.9408 10.6998 12.6208 11.0238 12.1648 11.8878C11.9248 12.3558 11.9008 12.5598 11.8648 15.4638L11.8168 18.5598H10.2688H8.72079V13.5198V8.47984H10.2208H11.7208V9.16384V9.85984L12.0328 9.46384C12.3928 9.00784 13.0768 8.55184 13.6528 8.37184C14.2168 8.19184 16.0048 8.29984 16.5568 8.52784ZM6.76479 13.4838L6.74079 18.4998L5.15679 18.5358L3.56079 18.5718V13.5198V8.47984H5.18079H6.78879L6.76479 13.4838Z" fill="#565655"/>
</svg>
