<svg width="288" height="48" viewBox="0 0 288 48" fill="none" xmlns="http://www.w3.org/2000/svg">
<path d="M61.2744 17.0591C62.6875 17.0591 63.8767 17.5343 64.8421 18.4846C65.8075 19.435 66.2902 20.602 66.2902 21.9856C66.2902 23.3692 65.8075 24.5362 64.8421 25.4865C63.8767 26.4369 62.6875 26.9121 61.2744 26.9121H58.693V31.7338H55.7969V17.0591H61.2744ZM61.2744 24.2078C61.89 24.2078 62.4007 23.9981 62.8064 23.5788C63.2121 23.1456 63.415 22.6145 63.415 21.9856C63.415 21.3427 63.2121 20.8116 62.8064 20.3923C62.4007 19.9731 61.89 19.7634 61.2744 19.7634H58.693V24.2078H61.2744Z" fill="#444BAB"/>
<path d="M70.5316 23.0547C70.7834 22.3839 71.1962 21.8808 71.7698 21.5453C72.3574 21.2099 73.008 21.0422 73.7215 21.0422V24.061C72.8961 23.9632 72.1545 24.1309 71.497 24.5641C70.8534 24.9974 70.5316 25.7172 70.5316 26.7234V31.7338H67.8243V21.2519H70.5316V23.0547Z" fill="#444BAB"/>
<path d="M83.8558 30.434C82.7785 31.4962 81.4633 32.0273 79.9103 32.0273C78.3573 32.0273 77.0421 31.4962 75.9648 30.434C74.9015 29.3579 74.3698 28.0441 74.3698 26.4928C74.3698 24.9415 74.9015 23.6347 75.9648 22.5726C77.0421 21.4964 78.3573 20.9584 79.9103 20.9584C81.4633 20.9584 82.7785 21.4964 83.8558 22.5726C84.9331 23.6347 85.4717 24.9415 85.4717 26.4928C85.4717 28.0441 84.9331 29.3579 83.8558 30.434ZM77.8746 28.5682C78.4202 29.1133 79.0988 29.3858 79.9103 29.3858C80.7218 29.3858 81.4003 29.1133 81.946 28.5682C82.4916 28.0232 82.7645 27.3314 82.7645 26.4928C82.7645 25.6543 82.4916 24.9625 81.946 24.4174C81.4003 23.8723 80.7218 23.5998 79.9103 23.5998C79.0988 23.5998 78.4202 23.8723 77.8746 24.4174C77.3429 24.9625 77.0771 25.6543 77.0771 26.4928C77.0771 27.3314 77.3429 28.0232 77.8746 28.5682Z" fill="#444BAB"/>
<path d="M95.4141 21.2519H98.0584V31.2306C98.0584 32.8518 97.5198 34.0887 96.4425 34.9412C95.3791 35.7938 94.092 36.22 92.5809 36.22C91.4477 36.22 90.4473 36.0034 89.5799 35.5701C88.7264 35.1369 88.0688 34.501 87.6071 33.6624L89.9156 32.3417C90.4473 33.32 91.3637 33.8092 92.6649 33.8092C93.5183 33.8092 94.1899 33.5856 94.6796 33.1383C95.1693 32.6911 95.4141 32.0552 95.4141 31.2306V30.0986C94.6166 31.1608 93.4973 31.6918 92.0563 31.6918C90.5732 31.6918 89.328 31.1747 88.3207 30.1405C87.3273 29.0923 86.8306 27.8205 86.8306 26.3251C86.8306 24.8437 87.3343 23.5788 88.3416 22.5306C89.349 21.4825 90.5872 20.9584 92.0563 20.9584C93.4973 20.9584 94.6166 21.4894 95.4141 22.5516V21.2519ZM90.3564 28.4005C90.916 28.9316 91.6225 29.1971 92.476 29.1971C93.3295 29.1971 94.029 28.9316 94.5747 28.4005C95.1343 27.8555 95.4141 27.1637 95.4141 26.3251C95.4141 25.5005 95.1343 24.8227 94.5747 24.2916C94.029 23.7466 93.3295 23.474 92.476 23.474C91.6225 23.474 90.916 23.7466 90.3564 24.2916C89.8107 24.8227 89.5379 25.5005 89.5379 26.3251C89.5379 27.1637 89.8107 27.8555 90.3564 28.4005Z" fill="#444BAB"/>
<path d="M103.221 23.0547C103.472 22.3839 103.885 21.8808 104.459 21.5453C105.046 21.2099 105.697 21.0422 106.411 21.0422V24.061C105.585 23.9632 104.844 24.1309 104.186 24.5641C103.542 24.9974 103.221 25.7172 103.221 26.7234V31.7338H100.513V21.2519H103.221V23.0547Z" fill="#444BAB"/>
<path d="M115.579 21.2519H118.287V31.7338H115.579V30.4969C114.768 31.5171 113.628 32.0273 112.159 32.0273C110.76 32.0273 109.556 31.4962 108.549 30.434C107.556 29.3579 107.059 28.0441 107.059 26.4928C107.059 24.9415 107.556 23.6347 108.549 22.5726C109.556 21.4964 110.76 20.9584 112.159 20.9584C113.628 20.9584 114.768 21.4685 115.579 22.4887V21.2519ZM110.585 28.6311C111.13 29.1762 111.823 29.4487 112.662 29.4487C113.502 29.4487 114.194 29.1762 114.74 28.6311C115.3 28.0721 115.579 27.3593 115.579 26.4928C115.579 25.6263 115.3 24.9205 114.74 24.3755C114.194 23.8164 113.502 23.5369 112.662 23.5369C111.823 23.5369 111.13 23.8164 110.585 24.3755C110.039 24.9205 109.766 25.6263 109.766 26.4928C109.766 27.3593 110.039 28.0721 110.585 28.6311Z" fill="#444BAB"/>
<path d="M132.347 20.9584C133.55 20.9584 134.509 21.3497 135.222 22.1323C135.95 22.915 136.314 23.9632 136.314 25.2769V31.7338H133.606V25.4656C133.606 24.8367 133.453 24.3475 133.145 23.9981C132.837 23.6487 132.403 23.474 131.844 23.474C131.228 23.474 130.745 23.6767 130.395 24.082C130.06 24.4873 129.892 25.0743 129.892 25.8429V31.7338H127.185V25.4656C127.185 24.8367 127.031 24.3475 126.723 23.9981C126.415 23.6487 125.981 23.474 125.422 23.474C124.82 23.474 124.337 23.6767 123.974 24.082C123.624 24.4873 123.449 25.0743 123.449 25.8429V31.7338H120.742V21.2519H123.449V22.3629C124.078 21.4266 125.051 20.9584 126.366 20.9584C127.653 20.9584 128.605 21.4615 129.22 22.4678C129.92 21.4615 130.962 20.9584 132.347 20.9584Z" fill="#444BAB"/>
<path d="M150.219 20.9584C151.422 20.9584 152.38 21.3497 153.094 22.1323C153.821 22.915 154.185 23.9632 154.185 25.2769V31.7338H151.478V25.4656C151.478 24.8367 151.324 24.3475 151.016 23.9981C150.708 23.6487 150.275 23.474 149.715 23.474C149.099 23.474 148.617 23.6767 148.267 24.082C147.931 24.4873 147.763 25.0743 147.763 25.8429V31.7338H145.056V25.4656C145.056 24.8367 144.902 24.3475 144.594 23.9981C144.286 23.6487 143.853 23.474 143.293 23.474C142.691 23.474 142.209 23.6767 141.845 24.082C141.495 24.4873 141.32 25.0743 141.32 25.8429V31.7338H138.613V21.2519H141.32V22.3629C141.95 21.4266 142.922 20.9584 144.237 20.9584C145.525 20.9584 146.476 21.4615 147.092 22.4678C147.791 21.4615 148.833 20.9584 150.219 20.9584Z" fill="#444BAB"/>
<path d="M157.828 19.994C157.38 19.994 156.988 19.8333 156.652 19.5119C156.331 19.1764 156.17 18.7851 156.17 18.3379C156.17 17.8907 156.331 17.4993 156.652 17.1639C156.988 16.8285 157.38 16.6608 157.828 16.6608C158.289 16.6608 158.681 16.8285 159.003 17.1639C159.339 17.4993 159.506 17.8907 159.506 18.3379C159.506 18.7851 159.339 19.1764 159.003 19.5119C158.681 19.8333 158.289 19.994 157.828 19.994ZM156.484 31.7338V21.2519H159.192V31.7338H156.484Z" fill="#444BAB"/>
<path d="M167.504 20.9584C168.651 20.9584 169.595 21.3427 170.337 22.1114C171.093 22.88 171.47 23.9422 171.47 25.2979V31.7338H168.763V25.6333C168.763 24.9345 168.574 24.4034 168.196 24.04C167.819 23.6627 167.315 23.474 166.685 23.474C165.986 23.474 165.426 23.6906 165.006 24.1239C164.587 24.5572 164.377 25.207 164.377 26.0735V31.7338H161.67V21.2519H164.377V22.4258C165.034 21.4475 166.077 20.9584 167.504 20.9584Z" fill="#444BAB"/>
<path d="M181.82 21.2519H184.464V31.2306C184.464 32.8518 183.925 34.0887 182.848 34.9412C181.785 35.7938 180.498 36.22 178.987 36.22C177.853 36.22 176.853 36.0034 175.986 35.5701C175.132 35.1369 174.474 34.501 174.013 33.6624L176.321 32.3417C176.853 33.32 177.769 33.8092 179.071 33.8092C179.924 33.8092 180.596 33.5856 181.085 33.1383C181.575 32.6911 181.82 32.0552 181.82 31.2306V30.0986C181.022 31.1608 179.903 31.6918 178.462 31.6918C176.979 31.6918 175.734 31.1747 174.726 30.1405C173.733 29.0923 173.236 27.8205 173.236 26.3251C173.236 24.8437 173.74 23.5788 174.747 22.5306C175.755 21.4825 176.993 20.9584 178.462 20.9584C179.903 20.9584 181.022 21.4894 181.82 22.5516V21.2519ZM176.762 28.4005C177.322 28.9316 178.028 29.1971 178.882 29.1971C179.735 29.1971 180.435 28.9316 180.98 28.4005C181.54 27.8555 181.82 27.1637 181.82 26.3251C181.82 25.5005 181.54 24.8227 180.98 24.2916C180.435 23.7466 179.735 23.474 178.882 23.474C178.028 23.474 177.322 23.7466 176.762 24.2916C176.216 24.8227 175.944 25.5005 175.944 26.3251C175.944 27.1637 176.216 27.8555 176.762 28.4005Z" fill="#444BAB"/>
<path d="M197.769 17.0591C199.182 17.0591 200.371 17.5343 201.337 18.4846C202.302 19.435 202.785 20.602 202.785 21.9856C202.785 23.3692 202.302 24.5362 201.337 25.4865C200.371 26.4369 199.182 26.9121 197.769 26.9121H195.188V31.7338H192.292V17.0591H197.769ZM197.769 24.2078C198.385 24.2078 198.895 23.9981 199.301 23.5788C199.707 23.1456 199.91 22.6145 199.91 21.9856C199.91 21.3427 199.707 20.8116 199.301 20.3923C198.895 19.9731 198.385 19.7634 197.769 19.7634H195.188V24.2078H197.769Z" fill="#444BAB"/>
<path d="M211.823 21.2519H214.53V31.7338H211.823V30.4969C211.011 31.5171 209.871 32.0273 208.402 32.0273C207.003 32.0273 205.799 31.4962 204.792 30.434C203.799 29.3579 203.302 28.0441 203.302 26.4928C203.302 24.9415 203.799 23.6347 204.792 22.5726C205.799 21.4964 207.003 20.9584 208.402 20.9584C209.871 20.9584 211.011 21.4685 211.823 22.4887V21.2519ZM206.828 28.6311C207.373 29.1762 208.066 29.4487 208.905 29.4487C209.745 29.4487 210.437 29.1762 210.983 28.6311C211.543 28.0721 211.823 27.3593 211.823 26.4928C211.823 25.6263 211.543 24.9205 210.983 24.3755C210.437 23.8164 209.745 23.5369 208.905 23.5369C208.066 23.5369 207.373 23.8164 206.828 24.3755C206.282 24.9205 206.009 25.6263 206.009 26.4928C206.009 27.3593 206.282 28.0721 206.828 28.6311Z" fill="#444BAB"/>
<path d="M222.987 23.8514H220.615V28.2118C220.615 28.5752 220.706 28.8408 220.888 29.0085C221.07 29.1762 221.336 29.274 221.686 29.302C222.036 29.3159 222.469 29.309 222.987 29.281V31.7338C221.126 31.9434 219.811 31.7687 219.041 31.2097C218.286 30.6506 217.908 29.6514 217.908 28.2118V23.8514H216.082V21.2519H217.908V19.1345L220.615 18.3169V21.2519H222.987V23.8514Z" fill="#444BAB"/>
<path d="M230.73 20.9584C231.877 20.9584 232.822 21.3427 233.563 22.1114C234.319 22.88 234.696 23.9422 234.696 25.2979V31.7338H231.989V25.6333C231.989 24.9345 231.8 24.4034 231.423 24.04C231.045 23.6627 230.541 23.474 229.912 23.474C229.212 23.474 228.652 23.6906 228.233 24.1239C227.813 24.5572 227.603 25.207 227.603 26.0735V31.7338H224.896V17.0591H227.603V22.4258C228.261 21.4475 229.303 20.9584 230.73 20.9584Z" fill="#444BAB"/>
<path d="M239.506 24.2287C239.506 24.5082 239.687 24.7388 240.051 24.9205C240.429 25.0882 240.884 25.242 241.415 25.3817C241.947 25.5075 242.479 25.6752 243.01 25.8849C243.542 26.0805 243.99 26.4159 244.353 26.8911C244.731 27.3663 244.92 27.9603 244.92 28.673C244.92 29.7492 244.514 30.5808 243.703 31.1677C242.905 31.7408 241.905 32.0273 240.702 32.0273C238.547 32.0273 237.078 31.1957 236.295 29.5326L238.645 28.2118C238.953 29.1203 239.638 29.5745 240.702 29.5745C241.667 29.5745 242.15 29.274 242.15 28.673C242.15 28.3935 241.961 28.1699 241.583 28.0022C241.219 27.8205 240.772 27.6598 240.24 27.52C239.708 27.3803 239.177 27.2056 238.645 26.9959C238.113 26.7863 237.659 26.4579 237.281 26.0106C236.917 25.5494 236.735 24.9764 236.735 24.2916C236.735 23.2574 237.113 22.4468 237.869 21.8598C238.638 21.2588 239.589 20.9584 240.723 20.9584C241.576 20.9584 242.353 21.154 243.052 21.5453C243.752 21.9227 244.304 22.4678 244.71 23.1805L242.402 24.4384C242.066 23.7256 241.506 23.3692 240.723 23.3692C240.373 23.3692 240.079 23.4461 239.841 23.5998C239.617 23.7535 239.506 23.9632 239.506 24.2287Z" fill="#444BAB"/>
<path d="M252.495 20.9584C253.643 20.9584 254.587 21.3427 255.329 22.1114C256.084 22.88 256.462 23.9422 256.462 25.2979V31.7338H253.755V25.6333C253.755 24.9345 253.566 24.4034 253.188 24.04C252.81 23.6627 252.307 23.474 251.677 23.474C250.977 23.474 250.418 23.6906 249.998 24.1239C249.578 24.5572 249.368 25.207 249.368 26.0735V31.7338H246.661V17.0591H249.368V22.4258C250.026 21.4475 251.068 20.9584 252.495 20.9584Z" fill="#444BAB"/>
<path d="M266.748 21.2519H269.456V31.7338H266.748V30.4969C265.937 31.5171 264.797 32.0273 263.328 32.0273C261.928 32.0273 260.725 31.4962 259.718 30.434C258.725 29.3579 258.228 28.0441 258.228 26.4928C258.228 24.9415 258.725 23.6347 259.718 22.5726C260.725 21.4964 261.928 20.9584 263.328 20.9584C264.797 20.9584 265.937 21.4685 266.748 22.4887V21.2519ZM261.754 28.6311C262.299 29.1762 262.992 29.4487 263.831 29.4487C264.671 29.4487 265.363 29.1762 265.909 28.6311C266.469 28.0721 266.748 27.3593 266.748 26.4928C266.748 25.6263 266.469 24.9205 265.909 24.3755C265.363 23.8164 264.671 23.5369 263.831 23.5369C262.992 23.5369 262.299 23.8164 261.754 24.3755C261.208 24.9205 260.935 25.6263 260.935 26.4928C260.935 27.3593 261.208 28.0721 261.754 28.6311Z" fill="#444BAB"/>
<path d="M271.911 31.7338V16.4302H274.618V31.7338H271.911Z" fill="#444BAB"/>
<path d="M285.071 21.2519H287.778V31.7338H285.071V30.4969C284.259 31.5171 283.119 32.0273 281.65 32.0273C280.251 32.0273 279.048 31.4962 278.04 30.434C277.047 29.3579 276.55 28.0441 276.55 26.4928C276.55 24.9415 277.047 23.6347 278.04 22.5726C279.048 21.4964 280.251 20.9584 281.65 20.9584C283.119 20.9584 284.259 21.4685 285.071 22.4887V21.2519ZM280.076 28.6311C280.621 29.1762 281.314 29.4487 282.154 29.4487C282.993 29.4487 283.686 29.1762 284.231 28.6311C284.791 28.0721 285.071 27.3593 285.071 26.4928C285.071 25.6263 284.791 24.9205 284.231 24.3755C283.686 23.8164 282.993 23.5369 282.154 23.5369C281.314 23.5369 280.621 23.8164 280.076 24.3755C279.53 24.9205 279.257 25.6263 279.257 26.4928C279.257 27.3593 279.53 28.0721 280.076 28.6311Z" fill="#444BAB"/>
<path d="M17.7803 1.32243C19.0765 0.513187 20.7206 0.513186 22.0168 1.32243L37.9154 11.2478C39.0859 11.9786 39.7971 13.261 39.7971 14.6409V32.8186C39.7971 34.1985 39.0859 35.481 37.9154 36.2117L22.0168 46.1371C20.7206 46.9463 19.0765 46.9463 17.7803 46.1371L1.88173 36.2117C0.711217 35.481 0 34.1985 0 32.8186V14.6409C0 13.261 0.711217 11.9786 1.88172 11.2478L17.7803 1.32243Z" fill="url(#paint0_linear_2_176)"/>
<mask id="mask0_2_176" style="mask-type:alpha" maskUnits="userSpaceOnUse" x="0" y="1" width="40" height="46">
<path d="M15.7817 2.57015C18.3009 0.99738 21.4962 0.997379 24.0154 2.57015L36.14 10.1394C38.4149 11.5596 39.7971 14.0521 39.7971 16.7339V30.7256C39.7971 33.4074 38.4149 35.8999 36.14 37.3201L24.0154 44.8894C21.4962 46.4621 18.3009 46.4621 15.7817 44.8894L3.65714 37.3201C1.38225 35.8999 0 33.4074 0 30.7256V16.7339C0 14.0521 1.38225 11.5596 3.65714 10.1394L15.7817 2.57015Z" fill="#C4C4C4"/>
</mask>
<g mask="url(#mask0_2_176)">
<rect x="8.52057" y="22.587" width="3.56922" height="22.0288" fill="white"/>
<mask id="mask1_2_176" style="mask-type:alpha" maskUnits="userSpaceOnUse" x="13" y="14" width="8" height="4">
<rect x="20.2983" y="14.2771" width="3.56922" height="7.13845" transform="rotate(90 20.2983 14.2771)" fill="#CD6767"/>
</mask>
<g mask="url(#mask1_2_176)">
<path d="M13.1598 17.8463C13.1598 17.3776 13.2522 16.9135 13.4315 16.4804C13.6109 16.0474 13.8738 15.6539 14.2052 15.3225C14.5367 14.9911 14.9301 14.7282 15.3632 14.5488C15.7962 14.3694 16.2603 14.2771 16.7291 14.2771L16.7291 17.8463L13.1598 17.8463Z" fill="white"/>
</g>
<mask id="mask2_2_176" style="mask-type:alpha" maskUnits="userSpaceOnUse" x="19" y="14" width="8" height="4">
<rect x="26.6453" y="14.2771" width="3.56922" height="7.13845" rx="0.485876" transform="rotate(90 26.6453 14.2771)" fill="#CD6767"/>
</mask>
<g mask="url(#mask2_2_176)">
<path d="M19.9928 17.8463C19.7244 17.8463 19.5035 17.6278 19.5399 17.3619C19.645 16.5942 19.9981 15.8766 20.5523 15.3225C21.2216 14.6531 22.1295 14.2771 23.0761 14.2771C24.0227 14.2771 24.9306 14.6531 25.5999 15.3225C26.1541 15.8766 26.5072 16.5942 26.6123 17.3619C26.6487 17.6278 26.4278 17.8463 26.1594 17.8463H23.0761L19.9928 17.8463Z" fill="white"/>
</g>
<path d="M21.5854 27.4943C21.8538 27.4943 22.0713 27.7118 22.0713 27.9801L22.0713 30.5776C22.0713 30.846 21.8538 31.0635 21.5854 31.0635L12.0886 31.0635L12.0886 27.4943L21.5854 27.4943Z" fill="white"/>
<path d="M26.6568 32.1235L23.0876 32.1235L23.0876 24.021C23.0876 23.7526 23.3051 23.5351 23.5735 23.5351L26.1709 23.5351C26.4393 23.5351 26.6568 23.7526 26.6568 24.021L26.6568 32.1235Z" fill="white"/>
<path d="M13.1487 17.8462L16.7179 17.8462L16.7179 25.9488C16.7179 26.2171 16.5004 26.4346 16.232 26.4346L13.6346 26.4346C13.3662 26.4346 13.1487 26.2171 13.1487 25.9488L13.1487 17.8462Z" fill="white"/>
<path d="M27.7061 18.9056L27.7061 22.4749L18.265 22.4749C17.9967 22.4749 17.7792 22.2573 17.7792 21.989L17.7792 19.3915C17.7792 19.1232 17.9967 18.9056 18.265 18.9056L27.7061 18.9056Z" fill="white"/>
<path d="M23.0869 32.1235L23.0869 35.6928L13.16 35.6928L13.16 32.6094C13.16 32.3411 13.3775 32.1235 13.6459 32.1235L23.0869 32.1235Z" fill="white"/>
<rect x="23.032" y="14.2771" width="3.56922" height="6.30191" transform="rotate(90 23.032 14.2771)" fill="white"/>
<mask id="mask3_2_176" style="mask-type:alpha" maskUnits="userSpaceOnUse" x="27" y="18" width="5" height="9">
<rect x="31.2745" y="26.0447" width="3.56922" height="7.13845" transform="rotate(-180 31.2745 26.0447)" fill="#CD6767"/>
</mask>
<g mask="url(#mask3_2_176)">
<path d="M27.7053 18.9062C28.6519 18.9062 29.5597 19.2823 30.2291 19.9516C30.8984 20.621 31.2745 21.5288 31.2745 22.4755L27.7053 22.4755L27.7053 18.9062Z" fill="white"/>
</g>
<mask id="mask4_2_176" style="mask-type:alpha" maskUnits="userSpaceOnUse" x="27" y="25" width="5" height="8">
<rect x="31.2852" y="32.402" width="3.56922" height="7.13845" rx="0.485876" transform="rotate(-180 31.2852 32.402)" fill="#CD6767"/>
</mask>
<g mask="url(#mask4_2_176)">
<path d="M27.7159 25.7494C27.7159 25.4811 27.9345 25.2601 28.2003 25.2965C28.968 25.4017 29.6856 25.7548 30.2398 26.3089C30.9091 26.9783 31.2852 27.8861 31.2852 28.8328C31.2852 29.7794 30.9091 30.6872 30.2398 31.3566C29.6856 31.9107 28.968 32.2638 28.2003 32.369C27.9345 32.4054 27.7159 32.1844 27.7159 31.9161L27.7159 28.8328L27.7159 25.7494Z" fill="white"/>
</g>
<rect x="31.2852" y="28.833" width="3.56922" height="6.35768" transform="rotate(-180 31.2852 28.833)" fill="white"/>
<path d="M13.1602 35.6926H16.7294V46.5836C16.7294 46.852 16.5118 47.0695 16.2435 47.0695H13.646C13.3777 47.0695 13.1602 46.852 13.1602 46.5836L13.1602 35.6926Z" fill="white"/>
<mask id="mask5_2_176" style="mask-type:alpha" maskUnits="userSpaceOnUse" x="8" y="19" width="5" height="8">
<rect x="8.52057" y="19.0176" width="3.56922" height="7.13845" rx="0.485876" fill="#CD6767"/>
</mask>
<g mask="url(#mask5_2_176)">
<circle cx="12.0898" cy="22.5868" r="3.56922" fill="white"/>
</g>
<mask id="mask6_2_176" style="mask-type:alpha" maskUnits="userSpaceOnUse" x="23" y="32" width="4" height="4">
<rect x="23.0869" y="35.6926" width="3.56922" height="3.56922" transform="rotate(-90 23.0869 35.6926)" fill="#CD6767"/>
</mask>
<g mask="url(#mask6_2_176)">
<path d="M26.6445 32.1235C26.6445 32.5922 26.5522 33.0564 26.3728 33.4894C26.1934 33.9224 25.9305 34.3159 25.5991 34.6473C25.2677 34.9788 24.8742 35.2417 24.4411 35.4211C24.0081 35.6004 23.544 35.6927 23.0753 35.6927L23.0753 32.1235L26.6445 32.1235Z" fill="white"/>
</g>
</g>
<defs>
<linearGradient id="paint0_linear_2_176" x1="19.8986" y1="0" x2="19.8986" y2="47.4595" gradientUnits="userSpaceOnUse">
<stop stop-color="#444BAB"/>
<stop offset="1" stop-color="#444BAB"/>
</linearGradient>
</defs>
</svg>
